<mxfile host="app.diagrams.net" modified="2022-04-05T08:09:44.732Z" agent="5.0 (Macintosh; Intel Mac OS X 10_15_7) AppleWebKit/537.36 (KHTML, like Gecko) Chrome/99.0.4844.51 Safari/537.36" etag="xwIzHrFPMjNwZSXYg13K" version="17.4.0" type="github">
  <diagram id="r1S2IiL8gjo6qYx_Xs9-" name="Page-1">
    <mxGraphModel dx="853" dy="606" grid="1" gridSize="10" guides="1" tooltips="1" connect="1" arrows="1" fold="1" page="1" pageScale="1" pageWidth="850" pageHeight="1100" math="0" shadow="0">
      <root>
        <mxCell id="0" />
        <mxCell id="1" parent="0" />
        <mxCell id="ZFhBVYU0JW3ir-FkwSgN-3" style="edgeStyle=orthogonalEdgeStyle;rounded=0;orthogonalLoop=1;jettySize=auto;html=1;exitX=1;exitY=0.5;exitDx=0;exitDy=0;entryX=0;entryY=0.5;entryDx=0;entryDy=0;" edge="1" parent="1" source="onMSjOo8Ae91YiJitjvb-1" target="onMSjOo8Ae91YiJitjvb-2">
          <mxGeometry relative="1" as="geometry" />
        </mxCell>
        <mxCell id="onMSjOo8Ae91YiJitjvb-1" value="START" style="ellipse;whiteSpace=wrap;html=1;aspect=fixed;" parent="1" vertex="1">
          <mxGeometry x="160" y="170" width="80" height="80" as="geometry" />
        </mxCell>
        <mxCell id="ZFhBVYU0JW3ir-FkwSgN-4" value="name" style="edgeStyle=orthogonalEdgeStyle;rounded=0;orthogonalLoop=1;jettySize=auto;html=1;exitX=1;exitY=0.5;exitDx=0;exitDy=0;entryX=0;entryY=0.5;entryDx=0;entryDy=0;" edge="1" parent="1" source="onMSjOo8Ae91YiJitjvb-2" target="ZFhBVYU0JW3ir-FkwSgN-1">
          <mxGeometry relative="1" as="geometry" />
        </mxCell>
        <mxCell id="onMSjOo8Ae91YiJitjvb-2" value="CREATE NAME" style="ellipse;whiteSpace=wrap;html=1;aspect=fixed;" parent="1" vertex="1">
          <mxGeometry x="300" y="170" width="80" height="80" as="geometry" />
        </mxCell>
        <mxCell id="ZFhBVYU0JW3ir-FkwSgN-6" value="values" style="edgeStyle=orthogonalEdgeStyle;rounded=0;orthogonalLoop=1;jettySize=auto;html=1;exitX=1;exitY=0.5;exitDx=0;exitDy=0;" edge="1" parent="1" source="ZFhBVYU0JW3ir-FkwSgN-1" target="ZFhBVYU0JW3ir-FkwSgN-2">
          <mxGeometry relative="1" as="geometry" />
        </mxCell>
        <mxCell id="ZFhBVYU0JW3ir-FkwSgN-1" value="CREATE VALUES" style="ellipse;whiteSpace=wrap;html=1;aspect=fixed;" vertex="1" parent="1">
          <mxGeometry x="430" y="170" width="80" height="80" as="geometry" />
        </mxCell>
        <mxCell id="ZFhBVYU0JW3ir-FkwSgN-11" style="edgeStyle=orthogonalEdgeStyle;curved=1;rounded=0;orthogonalLoop=1;jettySize=auto;html=1;exitX=0;exitY=1;exitDx=0;exitDy=0;entryX=0.5;entryY=1;entryDx=0;entryDy=0;" edge="1" parent="1" source="ZFhBVYU0JW3ir-FkwSgN-2" target="onMSjOo8Ae91YiJitjvb-2">
          <mxGeometry relative="1" as="geometry">
            <Array as="points">
              <mxPoint x="582" y="280" />
              <mxPoint x="340" y="280" />
            </Array>
          </mxGeometry>
        </mxCell>
        <mxCell id="ZFhBVYU0JW3ir-FkwSgN-12" value="/create" style="edgeLabel;html=1;align=center;verticalAlign=middle;resizable=0;points=[];" vertex="1" connectable="0" parent="ZFhBVYU0JW3ir-FkwSgN-11">
          <mxGeometry x="-0.0082" y="2" relative="1" as="geometry">
            <mxPoint as="offset" />
          </mxGeometry>
        </mxCell>
        <mxCell id="ZFhBVYU0JW3ir-FkwSgN-14" style="edgeStyle=orthogonalEdgeStyle;curved=1;rounded=0;orthogonalLoop=1;jettySize=auto;html=1;exitX=1;exitY=1;exitDx=0;exitDy=0;" edge="1" parent="1" source="ZFhBVYU0JW3ir-FkwSgN-2" target="ZFhBVYU0JW3ir-FkwSgN-13">
          <mxGeometry relative="1" as="geometry" />
        </mxCell>
        <mxCell id="ZFhBVYU0JW3ir-FkwSgN-15" value="/delete" style="edgeLabel;html=1;align=center;verticalAlign=middle;resizable=0;points=[];" vertex="1" connectable="0" parent="ZFhBVYU0JW3ir-FkwSgN-14">
          <mxGeometry x="-0.2467" y="-8" relative="1" as="geometry">
            <mxPoint as="offset" />
          </mxGeometry>
        </mxCell>
        <mxCell id="ZFhBVYU0JW3ir-FkwSgN-20" style="edgeStyle=orthogonalEdgeStyle;curved=1;rounded=0;orthogonalLoop=1;jettySize=auto;html=1;" edge="1" parent="1" source="ZFhBVYU0JW3ir-FkwSgN-2" target="onMSjOo8Ae91YiJitjvb-2">
          <mxGeometry relative="1" as="geometry">
            <mxPoint x="510" y="100" as="sourcePoint" />
            <mxPoint x="350" y="120" as="targetPoint" />
            <Array as="points">
              <mxPoint x="582" y="150" />
            </Array>
          </mxGeometry>
        </mxCell>
        <mxCell id="ZFhBVYU0JW3ir-FkwSgN-21" value="no configs" style="edgeLabel;html=1;align=center;verticalAlign=middle;resizable=0;points=[];" vertex="1" connectable="0" parent="ZFhBVYU0JW3ir-FkwSgN-20">
          <mxGeometry x="0.1951" y="-1" relative="1" as="geometry">
            <mxPoint as="offset" />
          </mxGeometry>
        </mxCell>
        <mxCell id="ZFhBVYU0JW3ir-FkwSgN-2" value="IDLE" style="ellipse;whiteSpace=wrap;html=1;aspect=fixed;" vertex="1" parent="1">
          <mxGeometry x="570" y="170" width="80" height="80" as="geometry" />
        </mxCell>
        <mxCell id="ZFhBVYU0JW3ir-FkwSgN-17" style="edgeStyle=orthogonalEdgeStyle;curved=1;rounded=0;orthogonalLoop=1;jettySize=auto;html=1;exitX=0;exitY=0.5;exitDx=0;exitDy=0;" edge="1" parent="1" source="ZFhBVYU0JW3ir-FkwSgN-13" target="ZFhBVYU0JW3ir-FkwSgN-2">
          <mxGeometry relative="1" as="geometry" />
        </mxCell>
        <mxCell id="ZFhBVYU0JW3ir-FkwSgN-18" value="selected config" style="edgeLabel;html=1;align=center;verticalAlign=middle;resizable=0;points=[];" vertex="1" connectable="0" parent="ZFhBVYU0JW3ir-FkwSgN-17">
          <mxGeometry x="-0.4" y="-16" relative="1" as="geometry">
            <mxPoint as="offset" />
          </mxGeometry>
        </mxCell>
        <mxCell id="ZFhBVYU0JW3ir-FkwSgN-13" value="DELETE SELECT" style="ellipse;whiteSpace=wrap;html=1;aspect=fixed;" vertex="1" parent="1">
          <mxGeometry x="670" y="280" width="80" height="80" as="geometry" />
        </mxCell>
        <mxCell id="ZFhBVYU0JW3ir-FkwSgN-22" value="SELECT" style="ellipse;whiteSpace=wrap;html=1;aspect=fixed;" vertex="1" parent="1">
          <mxGeometry x="750" y="120" width="80" height="80" as="geometry" />
        </mxCell>
        <mxCell id="ZFhBVYU0JW3ir-FkwSgN-24" value="" style="curved=1;endArrow=classic;html=1;rounded=0;" edge="1" parent="1" source="ZFhBVYU0JW3ir-FkwSgN-2" target="ZFhBVYU0JW3ir-FkwSgN-2">
          <mxGeometry width="50" height="50" relative="1" as="geometry">
            <mxPoint x="620" y="130" as="sourcePoint" />
            <mxPoint x="630" y="40" as="targetPoint" />
            <Array as="points">
              <mxPoint x="580" y="110" />
              <mxPoint x="640" y="110" />
            </Array>
          </mxGeometry>
        </mxCell>
        <mxCell id="ZFhBVYU0JW3ir-FkwSgN-25" value="value to calc" style="edgeLabel;html=1;align=center;verticalAlign=middle;resizable=0;points=[];" vertex="1" connectable="0" parent="ZFhBVYU0JW3ir-FkwSgN-24">
          <mxGeometry x="-0.0424" y="1" relative="1" as="geometry">
            <mxPoint as="offset" />
          </mxGeometry>
        </mxCell>
        <mxCell id="ZFhBVYU0JW3ir-FkwSgN-26" value="" style="curved=1;endArrow=classic;html=1;rounded=0;" edge="1" parent="1" source="ZFhBVYU0JW3ir-FkwSgN-2" target="ZFhBVYU0JW3ir-FkwSgN-22">
          <mxGeometry width="50" height="50" relative="1" as="geometry">
            <mxPoint x="668.5060845773589" y="99.9969485911966" as="sourcePoint" />
            <mxPoint x="691.4939154226408" y="99.99694859119751" as="targetPoint" />
            <Array as="points">
              <mxPoint x="670" y="150" />
            </Array>
          </mxGeometry>
        </mxCell>
        <mxCell id="ZFhBVYU0JW3ir-FkwSgN-27" value="/select" style="edgeLabel;html=1;align=center;verticalAlign=middle;resizable=0;points=[];" vertex="1" connectable="0" parent="ZFhBVYU0JW3ir-FkwSgN-26">
          <mxGeometry x="-0.0424" y="1" relative="1" as="geometry">
            <mxPoint x="5" y="10" as="offset" />
          </mxGeometry>
        </mxCell>
        <mxCell id="ZFhBVYU0JW3ir-FkwSgN-28" value="" style="curved=1;endArrow=classic;html=1;rounded=0;" edge="1" parent="1" source="ZFhBVYU0JW3ir-FkwSgN-22" target="ZFhBVYU0JW3ir-FkwSgN-2">
          <mxGeometry width="50" height="50" relative="1" as="geometry">
            <mxPoint x="720" y="210" as="sourcePoint" />
            <mxPoint x="754.2229123600034" y="162.1114561800017" as="targetPoint" />
            <Array as="points" />
          </mxGeometry>
        </mxCell>
        <mxCell id="ZFhBVYU0JW3ir-FkwSgN-29" value="selected config" style="edgeLabel;html=1;align=center;verticalAlign=middle;resizable=0;points=[];" vertex="1" connectable="0" parent="ZFhBVYU0JW3ir-FkwSgN-28">
          <mxGeometry x="-0.0424" y="1" relative="1" as="geometry">
            <mxPoint x="-3" y="5" as="offset" />
          </mxGeometry>
        </mxCell>
      </root>
    </mxGraphModel>
  </diagram>
</mxfile>
